<svg xmlns="http://www.w3.org/2000/svg" viewBox="0 0 32 32" width="32" height="32">
  <!-- Cup body -->
  <path d="M9 4h14v2h-1l-2 12h-8L10 6H9z" fill="#c7a33a"/>
  <!-- Cup shine -->
  <path d="M11 6h3l-1.5 10h-2z" fill="#dfc66e" opacity="0.5"/>
  <!-- Left handle -->
  <path d="M9 6H7a1 1 0 0 0-1 1v3a3 3 0 0 0 3 3h1z" fill="#c7a33a"/>
  <path d="M9 6H7.5a1 1 0 0 0-1 1v2.5A2.5 2.5 0 0 0 9 12z" fill="#dfc66e" opacity="0.3"/>
  <!-- Right handle -->
  <path d="M23 6h2a1 1 0 0 1 1 1v3a3 3 0 0 1-3 3h-1z" fill="#c7a33a"/>
  <!-- Stem -->
  <rect x="14" y="18" width="4" height="4" fill="#8b6914"/>
  <!-- Base -->
  <path d="M10 24h12v2H10z" fill="#c7a33a"/>
  <path d="M12 22h8v2h-8z" fill="#8b6914"/>
  <!-- Base shine -->
  <path d="M10 24h12v1H10z" fill="#dfc66e" opacity="0.4"/>
  <!-- Cup rim -->
  <rect x="8" y="4" width="16" height="2" rx="1" fill="#dfc66e"/>
</svg>
